<svg width="1056" height="150" viewBox="0 0 1056 150" fill="none" xmlns="http://www.w3.org/2000/svg">
<style>
#Shadow {
	animation: 1.2s linear 0s 1 normal forwards running Shadow;
}
@keyframes Shadow {
	0% {
		opacity: 0;
	}
	41.67% {
		opacity: 1;
	}
	100% {
		opacity: 1;
	}
}
#S1 {
	width: 49.43px;
	height: 149.95px;
	animation: 1.2s linear 0s 1 normal forwards running S1;
	transform-box: fill-box;
	transform-origin: 50% 50%;
}
@keyframes S1 {
	0% {
		transform: translateX(-50px);
	}
	16.67% {
		transform: translateX(0px);
	}
	100% {
		transform: translateX(0px);
	}
}
#S2 {
	width: 100.57px;
	height: 150px;
	animation: 1.2s linear 0.2s 1 normal forwards running S2;
	transform-box: fill-box;
	transform-origin: 50% 50%;
}
@keyframes S2 {
	0% {
		transform: translateX(-4.25px);
	}
	16.67% {
		transform: translateX(-4.25px);
	}
	41.67% {
		transform: translateX(145.75px);
	}
	100% {
		transform: translateX(145.75px);
	}
}
#SeventeenLabs {
	width: 906px;
	height: 151px;
	animation: 1.2s linear 0s 1 normal forwards running SeventeenLabs;
	transform-box: fill-box;
	transform-origin: 50% 50%;
}
@keyframes SeventeenLabs {
	0% {
		transform: translateX(0px);
	}
	41.67% {
		transform: translateX(0px);
	}
	100% {
		transform: translateX(967px);
	}
}
</style>
<g id="Frame 37" clip-path="url(#clip0_28_137)">
<g id="logo-white (1) 2" clip-path="url(#clip1_28_137)">
<path id="S2" d="M4.25567 0.0491029C-8.25933 0.0491134 -96.2757 -0.0615805 -96.3154 0.0493983V35.8513L-48.0213 35.7641C-54.6214 53.2963 -63.0824 80.5867 -69.1301 105.6C-72.0957 117.83 -77.4165 146.487 -77.4165 150H-44.9643C-39.7603 115.228 -27.9303 72.6175 -12.2013 34.6907C-7.63633 23.6965 -1.29733 10.1976 2.83067 2.65129L4.25567 0.0491029Z" fill="white"/>
<path id="S1" d="M49.4239 0.0045166H-0.00390625V35.5894L17.2958 35.6219L17.5002 149.956H49.4239V0.0045166Z" fill="white"/>
<path id="Shadow" opacity="0.516" d="M149.571 0.0491029C137.056 0.0491134 49.0397 -0.0615805 49 0.0493983V35.8513L97.2941 35.7641C90.694 53.2963 82.233 80.5867 76.1853 105.6C73.2197 117.83 67.8989 146.487 67.8989 150H100.351C105.555 115.228 117.385 72.6175 133.114 34.6907C137.679 23.6965 144.018 10.1976 148.146 2.65129L149.571 0.0491029Z" fill="url(#paint0_linear_28_137)" fill-opacity="0.6"/>
</g>
</g>
<defs>
<linearGradient id="paint0_linear_28_137" x1="69.8831" y1="25" x2="37.0708" y2="25" gradientUnits="userSpaceOnUse">
<stop stop-opacity="0"/>
<stop offset="0.971011"/>
</linearGradient>
<clipPath id="clip0_28_137">
<rect width="1056" height="150" fill="white"/>
</clipPath>
<clipPath id="clip1_28_137">
<rect width="150" height="150" fill="white"/>
</clipPath>
</defs>
</svg>
